<svg xmlns="http://www.w3.org/2000/svg" xmlns:xlink="http://www.w3.org/1999/xlink" width="55" height="45.112" viewBox="0 0 55 45.112"><defs><style>.a,.b,.c,.d{fill-rule:evenodd;}.a{fill:url(#a);}.b{fill:url(#b);}.c{fill:#fff;}.d{fill:url(#c);}</style><radialGradient id="a" cx="-0.007" cy="0" r="1.439" gradientUnits="objectBoundingBox"><stop offset="0" stop-color="#fdc300"/><stop offset="1" stop-color="#ef7c00"/></radialGradient><radialGradient id="b" cx="-0.006" cy="-0.002" r="1.42" gradientUnits="objectBoundingBox"><stop offset="0" stop-color="#c8d400"/><stop offset="1" stop-color="#799e1a"/></radialGradient><radialGradient id="c" cx="-0.006" cy="-0.002" r="1.424" gradientTransform="scale(0.995 1)" gradientUnits="objectBoundingBox"><stop offset="0" stop-color="#fdc300"/><stop offset="1" stop-color="#799e1a"/></radialGradient></defs><g transform="translate(0 -0.292)"><g transform="translate(39.968 15.355)"><path class="a" d="M.082.019A14.975,14.975,0,0,0,15.114,15.011V6.488A6.487,6.487,0,0,0,8.644.019H.082Z" transform="translate(-0.082 -0.019)"/></g><g transform="translate(24.945 0.292)"><path class="b" d="M.12.262V16.449a6.389,6.389,0,0,0,6.37,6.37H22.676A22.543,22.543,0,0,0,.12.262Z" transform="translate(-0.12 -0.262)"/></g><path class="c" d="M21.62,71.841a3.411,3.411,0,0,1-.992,2.447,3.265,3.265,0,0,1-2.42,1.023H14.772V71.845a.059.059,0,0,0,0-.018v-.011a3.451,3.451,0,0,1,.992-2.451,3.234,3.234,0,0,1,2.253-1.036v.018l.191-.022a3.248,3.248,0,0,1,2.419,1.038,3.452,3.452,0,0,1,.992,2.46v.019Zm.413-3.806.122-.124a5.625,5.625,0,0,0-7.909,0,5.3,5.3,0,0,0-1.653,3.922v9.455l.195-.023a2.29,2.29,0,0,0,1.972-2.247V77.352H18.2a5.476,5.476,0,0,0,3.965-1.612,5.452,5.452,0,0,0-.006-7.828ZM9.026,75.312H5.586A3.273,3.273,0,0,1,3.162,74.29a3.4,3.4,0,0,1-1-2.432.044.044,0,0,0,0-.022v-.014a3.435,3.435,0,0,1,.994-2.457,3.248,3.248,0,0,1,2.427-1.038h.025a3.252,3.252,0,0,1,2.419,1.038,3.442,3.442,0,0,1,1,2.46v3.489Zm.413-7.276.122-.125A5.457,5.457,0,0,0,5.6,66.285,5.436,5.436,0,0,0,1.653,67.91,5.3,5.3,0,0,0,0,71.832a5.251,5.251,0,0,0,1.653,3.907A5.455,5.455,0,0,0,5.6,77.352h5.617V71.833a5.287,5.287,0,0,0-1.66-3.921l-.122.124Zm38.118,9.12a2.031,2.031,0,0,0-.606-1.219l-.123.122.122-.123a2.055,2.055,0,0,0-1.512-.625H44.345a3.291,3.291,0,0,1-2.428-1.023,3.39,3.39,0,0,1-1-2.445V69.607c0-.042,0-.083-.006-.15V67.323a1.084,1.084,0,0,0-1.082-1.082h0a1.076,1.076,0,0,0-1.072,1.008l-.009.1v2.662l0,.015a.1.1,0,0,1,0,.02v1.789A5.256,5.256,0,0,0,40.4,75.739a5.456,5.456,0,0,0,3.951,1.613h3.231l-.026-.2ZM32.978,66.285v0h-2.4A5.454,5.454,0,0,0,26.628,67.9,5.243,5.243,0,0,0,24.975,71.8v5.552l.195-.023a2.282,2.282,0,0,0,1.97-2.247l0-3.264a.15.15,0,0,0,0-.027v-.01a3.379,3.379,0,0,1,1-2.435,3.294,3.294,0,0,1,2.433-1.024h2.4a1.02,1.02,0,1,0,0-2.041ZM37.4,68.552h0A2.287,2.287,0,0,0,35.425,66.3l-.194-.023v6.09h0v3.941a1.086,1.086,0,0,0,2.171,0V68.552Z" transform="translate(0 -35.884)"/><g transform="translate(39.967 15.355)"><path class="d" d="M.081.019a15.014,15.014,0,0,0,2,7.5l5.529,0A22.531,22.531,0,0,0,6.34.019H.08Z" transform="translate(-0.08 -0.019)"/></g></g></svg>